<svg xmlns="http://www.w3.org/2000/svg" width="208" height="32" fill="none"><path fill="#fff" d="M208 0H0v32h208V0Z"/><path fill="#fff" d="M178.896 21.122c-2.453 0-4.499-1.746-4.984-4.066h-8.159c.577 6.746 6.204 12.039 13.058 12.039 6.853 0 12.487-5.293 13.058-12.039h-7.989c-.486 2.326-2.532 4.066-4.984 4.066Z"/><path fill="#DFDFDF" d="M181.81 28.753c5.439-1.282 9.573-5.965 10.058-11.697h-3.217c-.322 5.201-3.035 9.609-6.841 11.697Z"/><path fill="#fff" d="M181.901 16c-.007 0-.007 0 0 0a3.203 3.203 0 0 0-.195-1.056 2.996 2.996 0 0 0-2.811-1.96A3.005 3.005 0 0 0 175.896 16h.007c0 .372.066.727.188 1.056a2.997 2.997 0 0 0 2.811 1.96A3.005 3.005 0 0 0 181.901 16Z"/><path fill="#FF1C1C" d="M178.902 10.884c2.452 0 4.498 1.746 4.984 4.066h8.159c-.577-6.752-6.205-12.045-13.064-12.045-6.86 0-12.481 5.293-13.058 12.039h7.995c.486-2.32 2.531-4.06 4.984-4.06Z"/><path fill="#DF1818" d="M188.651 14.944h3.388c-.498-5.83-4.772-10.58-10.351-11.758 3.873 2.057 6.636 6.508 6.963 11.758Z"/><path fill="url(#a)" d="M178.98 2.905c6.86 0 12.487 5.293 13.058 12.039h-8.159c-.485-2.32-2.531-4.066-4.984-4.066-2.452 0-4.498 1.746-4.983 4.066h-7.989c.576-6.746 6.204-12.039 13.057-12.039Zm2.726 12.039c.122.33.188.684.188 1.056h.006c0 .372-.067.727-.188 1.056a2.997 2.997 0 0 1-2.81 1.96A3.005 3.005 0 0 1 175.903 16h-.006c0-.372.066-.726.188-1.056a2.997 2.997 0 0 1 2.81-1.96c1.287 0 2.386.818 2.811 1.96ZM178.81 29.1c-6.859 0-12.487-5.293-13.057-12.039h8.159c.485 2.32 2.531 4.066 4.983 4.066 2.453 0 4.499-1.746 4.984-4.066h7.995c-.577 6.74-6.204 12.039-13.064 12.039Zm.085-28.71c-8.571 0-15.522 6.99-15.522 15.609 0 8.62 6.951 15.61 15.522 15.61 8.572 0 15.529-6.984 15.529-15.61S187.473.39 178.895.39Z"/><path fill="#DDF5E9" fill-opacity=".64" d="M10.626 21.835H5.84v-3.326h4.785c.706 0 1.272-.119 1.7-.355.435-.237.753-.561.954-.973.209-.421.314-.894.314-1.42 0-.544-.105-1.048-.314-1.512a2.533 2.533 0 0 0-.955-1.144c-.427-.29-.993-.434-1.7-.434H7.384v15.817H3.121V9.345h7.505c1.516 0 2.815.276 3.896.828 1.09.552 1.922 1.31 2.497 2.274.584.956.876 2.052.876 3.287 0 1.236-.292 2.31-.876 3.222-.575.911-1.408 1.621-2.497 2.13-1.081.5-2.38.749-3.896.749Zm12.09-.316v-.276c0-1.043.148-2.002.445-2.879a6.562 6.562 0 0 1 1.307-2.3 5.898 5.898 0 0 1 2.118-1.513c.837-.368 1.796-.552 2.877-.552 1.098 0 2.065.184 2.902.552.846.36 1.556.863 2.131 1.512a6.559 6.559 0 0 1 1.308 2.301c.296.877.444 1.836.444 2.88v.276a9.017 9.017 0 0 1-.444 2.879 6.718 6.718 0 0 1-1.308 2.3 5.9 5.9 0 0 1-2.118 1.513c-.837.36-1.8.539-2.89.539-1.08 0-2.043-.18-2.889-.54a5.876 5.876 0 0 1-2.13-1.511 6.721 6.721 0 0 1-1.308-2.301 9.02 9.02 0 0 1-.445-2.88Zm4.092-.276v.277c0 .56.044 1.086.131 1.577.096.491.249.92.458 1.289.21.368.484.657.824.867.348.202.771.303 1.268.303s.915-.101 1.255-.303c.34-.21.614-.5.824-.867.209-.369.357-.798.444-1.289.096-.49.144-1.017.144-1.578v-.276c0-.552-.048-1.069-.144-1.551a4.16 4.16 0 0 0-.444-1.302 2.32 2.32 0 0 0-.837-.88c-.34-.211-.763-.316-1.268-.316-.489 0-.902.105-1.242.315-.34.21-.615.504-.824.881-.21.377-.362.811-.458 1.302-.087.482-.13 1-.13 1.551ZM45.712 8.28v20.208h-4.092V8.28h4.092Zm8.982 5.982-6.158 7.152-3.255 3.287-1.635-2.774 2.641-3.432 3.49-4.233h4.917Zm-4.315 14.226-3.987-6.535 2.928-2.3 5.74 8.835h-4.68Zm15.333.263c-1.124 0-2.131-.18-3.02-.54-.89-.359-1.643-.854-2.262-1.485a6.648 6.648 0 0 1-1.399-2.209 7.326 7.326 0 0 1-.483-2.669v-.5c0-1.06.148-2.037.444-2.931a6.788 6.788 0 0 1 1.294-2.328 5.76 5.76 0 0 1 2.118-1.538c.837-.368 1.792-.552 2.864-.552 1.002 0 1.896.166 2.68.5a5.308 5.308 0 0 1 1.987 1.406c.54.605.95 1.337 1.23 2.196.287.85.43 1.806.43 2.866v1.683h-11.4v-2.643h7.4v-.315c0-.5-.091-.938-.275-1.315a1.894 1.894 0 0 0-.784-.868c-.34-.21-.771-.315-1.294-.315-.497 0-.911.105-1.242.315-.332.21-.598.509-.798.894a4.66 4.66 0 0 0-.418 1.328c-.087.5-.131 1.039-.131 1.617v.5c0 .552.074 1.056.222 1.512.148.456.366.846.654 1.17a3.05 3.05 0 0 0 1.046.763c.41.184.876.276 1.399.276.645 0 1.26-.123 1.843-.368a3.942 3.942 0 0 0 1.517-1.184l1.909 2.196c-.288.421-.693.828-1.216 1.223-.514.386-1.133.701-1.857.947-.723.245-1.542.368-2.458.368Zm-2.89-16.383 2.59-4.088h4.366l-3.621 4.088h-3.334Zm22.211 12.938V8.293h4.105v20.195H85.45l-.418-3.182Zm-8.812-3.76v-.276c0-1.078.118-2.06.353-2.945.244-.895.597-1.662 1.06-2.301a4.84 4.84 0 0 1 1.738-1.5c.688-.35 1.477-.525 2.366-.525.82 0 1.534.184 2.144.552.61.36 1.13.868 1.556 1.525.436.649.789 1.416 1.06 2.301a17.8 17.8 0 0 1 .614 2.853v.473a15.27 15.27 0 0 1-.615 2.748c-.27.85-.623 1.6-1.059 2.249a4.871 4.871 0 0 1-1.569 1.512c-.61.36-1.329.539-2.157.539-.89 0-1.678-.18-2.366-.54a4.884 4.884 0 0 1-1.713-1.511c-.462-.649-.815-1.412-1.059-2.288a11.023 11.023 0 0 1-.353-2.866Zm4.08-.276v.276c0 .56.038 1.082.117 1.564.087.482.226.907.418 1.276.192.368.445.657.758.867.314.202.698.303 1.151.303.61 0 1.111-.14 1.503-.42.393-.29.69-.689.89-1.197.2-.509.305-1.1.313-1.775v-1.38c0-.562-.056-1.066-.17-1.513a3.208 3.208 0 0 0-.51-1.13 2.11 2.11 0 0 0-.823-.697c-.331-.167-.724-.25-1.177-.25-.444 0-.823.105-1.137.315-.314.202-.571.487-.772.855a4.746 4.746 0 0 0-.431 1.302 9.176 9.176 0 0 0-.13 1.604Zm21.438 7.48c-1.125 0-2.131-.179-3.02-.538-.89-.36-1.643-.855-2.262-1.486a6.648 6.648 0 0 1-1.4-2.209 7.325 7.325 0 0 1-.483-2.669v-.5c0-1.06.148-2.037.445-2.931a6.796 6.796 0 0 1 1.294-2.328 5.754 5.754 0 0 1 2.118-1.538c.837-.368 1.791-.552 2.863-.552 1.003 0 1.896.166 2.681.5a5.319 5.319 0 0 1 1.987 1.406c.54.605.95 1.337 1.229 2.196.287.85.431 1.806.431 2.866v1.683h-11.4v-2.643h7.399v-.315c0-.5-.091-.938-.274-1.315a1.897 1.897 0 0 0-.785-.868c-.34-.21-.771-.315-1.294-.315-.497 0-.911.105-1.242.315-.331.21-.597.509-.797.894-.192.377-.332.82-.419 1.328-.087.5-.13 1.039-.13 1.617v.5c0 .552.074 1.056.221 1.512.149.456.367.846.654 1.17.288.325.637.579 1.046.763.41.184.876.276 1.399.276.645 0 1.26-.123 1.844-.368a3.937 3.937 0 0 0 1.516-1.184l1.909 2.196c-.287.421-.693.828-1.216 1.223-.514.386-1.133.701-1.856.947-.724.245-1.543.368-2.458.368Zm14.457-14.488 2.17 4.115 2.236-4.115h4.288l-3.857 6.942 4.04 7.284h-4.314l-2.38-4.392-2.366 4.392h-4.328l4.04-7.284-3.844-6.942h4.315Z"/><mask id="b" width="130" height="27" x="0" y="5" maskUnits="userSpaceOnUse" style="mask-type:luminance"><path fill="#fff" d="M129.224 5.854H.776v25.365h128.448V5.854Z"/><path fill="#000" d="M10.626 21.835H5.84v-3.326h4.785c.706 0 1.272-.119 1.7-.355.435-.237.753-.561.954-.973.209-.421.314-.894.314-1.42 0-.544-.105-1.048-.314-1.512a2.533 2.533 0 0 0-.955-1.144c-.427-.29-.993-.434-1.7-.434H7.384v15.817H3.121V9.345h7.505c1.516 0 2.815.276 3.896.828 1.09.552 1.922 1.31 2.497 2.274.584.956.876 2.052.876 3.287 0 1.236-.292 2.31-.876 3.222-.575.911-1.408 1.621-2.497 2.13-1.081.5-2.38.749-3.896.749Zm12.09-.316v-.276c0-1.043.148-2.002.445-2.879a6.562 6.562 0 0 1 1.307-2.3 5.898 5.898 0 0 1 2.118-1.513c.837-.368 1.796-.552 2.877-.552 1.098 0 2.065.184 2.902.552.846.36 1.556.863 2.131 1.512a6.559 6.559 0 0 1 1.308 2.301c.296.877.444 1.836.444 2.88v.276a9.017 9.017 0 0 1-.444 2.879 6.718 6.718 0 0 1-1.308 2.3 5.9 5.9 0 0 1-2.118 1.513c-.837.36-1.8.539-2.89.539-1.08 0-2.043-.18-2.889-.54a5.876 5.876 0 0 1-2.13-1.511 6.721 6.721 0 0 1-1.308-2.301 9.02 9.02 0 0 1-.445-2.88Zm4.092-.276v.277c0 .56.044 1.086.131 1.577.096.491.249.92.458 1.289.21.368.484.657.824.867.348.202.771.303 1.268.303s.915-.101 1.255-.303c.34-.21.614-.5.824-.867.209-.369.357-.798.444-1.289.096-.49.144-1.017.144-1.578v-.276c0-.552-.048-1.069-.144-1.551a4.16 4.16 0 0 0-.444-1.302 2.32 2.32 0 0 0-.837-.88c-.34-.211-.763-.316-1.268-.316-.489 0-.902.105-1.242.315-.34.21-.615.504-.824.881-.21.377-.362.811-.458 1.302-.087.482-.13 1-.13 1.551ZM45.712 8.28v20.208h-4.092V8.28h4.092Zm8.982 5.982-6.158 7.152-3.255 3.287-1.635-2.774 2.641-3.432 3.49-4.233h4.917Zm-4.315 14.226-3.987-6.535 2.928-2.3 5.74 8.835h-4.68Zm15.333.263c-1.124 0-2.131-.18-3.02-.54-.89-.359-1.643-.854-2.262-1.485a6.648 6.648 0 0 1-1.399-2.209 7.326 7.326 0 0 1-.483-2.669v-.5c0-1.06.148-2.037.444-2.931a6.788 6.788 0 0 1 1.294-2.328 5.76 5.76 0 0 1 2.118-1.538c.837-.368 1.792-.552 2.864-.552 1.002 0 1.896.166 2.68.5a5.308 5.308 0 0 1 1.987 1.406c.54.605.95 1.337 1.23 2.196.287.85.43 1.806.43 2.866v1.683h-11.4v-2.643h7.4v-.315c0-.5-.091-.938-.275-1.315a1.894 1.894 0 0 0-.784-.868c-.34-.21-.771-.315-1.294-.315-.497 0-.911.105-1.242.315-.332.21-.598.509-.798.894a4.66 4.66 0 0 0-.418 1.328c-.087.5-.131 1.039-.131 1.617v.5c0 .552.074 1.056.222 1.512.148.456.366.846.654 1.17a3.05 3.05 0 0 0 1.046.763c.41.184.876.276 1.399.276.645 0 1.26-.123 1.843-.368a3.942 3.942 0 0 0 1.517-1.184l1.909 2.196c-.288.421-.693.828-1.216 1.223-.514.386-1.133.701-1.857.947-.723.245-1.542.368-2.458.368Zm-2.89-16.383 2.59-4.088h4.366l-3.621 4.088h-3.334Zm22.211 12.938V8.293h4.105v20.195H85.45l-.418-3.182Zm-8.812-3.76v-.276c0-1.078.118-2.06.353-2.945.244-.895.597-1.662 1.06-2.301a4.84 4.84 0 0 1 1.738-1.5c.688-.35 1.477-.525 2.366-.525.82 0 1.534.184 2.144.552.61.36 1.13.868 1.556 1.525.436.649.789 1.416 1.06 2.301a17.8 17.8 0 0 1 .614 2.853v.473a15.27 15.27 0 0 1-.615 2.748c-.27.85-.623 1.6-1.059 2.249a4.871 4.871 0 0 1-1.569 1.512c-.61.36-1.329.539-2.157.539-.89 0-1.678-.18-2.366-.54a4.884 4.884 0 0 1-1.713-1.511c-.462-.649-.815-1.412-1.059-2.288a11.023 11.023 0 0 1-.353-2.866Zm4.08-.276v.276c0 .56.038 1.082.117 1.564.087.482.226.907.418 1.276.192.368.445.657.758.867.314.202.698.303 1.151.303.61 0 1.111-.14 1.503-.42.393-.29.69-.689.89-1.197.2-.509.305-1.1.313-1.775v-1.38c0-.562-.056-1.066-.17-1.513a3.208 3.208 0 0 0-.51-1.13 2.11 2.11 0 0 0-.823-.697c-.331-.167-.724-.25-1.177-.25-.444 0-.823.105-1.137.315-.314.202-.571.487-.772.855a4.746 4.746 0 0 0-.431 1.302 9.176 9.176 0 0 0-.13 1.604Zm21.438 7.48c-1.125 0-2.131-.179-3.02-.538-.89-.36-1.643-.855-2.262-1.486a6.648 6.648 0 0 1-1.4-2.209 7.325 7.325 0 0 1-.483-2.669v-.5c0-1.06.148-2.037.445-2.931a6.796 6.796 0 0 1 1.294-2.328 5.754 5.754 0 0 1 2.118-1.538c.837-.368 1.791-.552 2.863-.552 1.003 0 1.896.166 2.681.5a5.319 5.319 0 0 1 1.987 1.406c.54.605.95 1.337 1.229 2.196.287.85.431 1.806.431 2.866v1.683h-11.4v-2.643h7.399v-.315c0-.5-.091-.938-.274-1.315a1.897 1.897 0 0 0-.785-.868c-.34-.21-.771-.315-1.294-.315-.497 0-.911.105-1.242.315-.331.21-.597.509-.797.894-.192.377-.332.82-.419 1.328-.087.5-.13 1.039-.13 1.617v.5c0 .552.074 1.056.221 1.512.149.456.367.846.654 1.17.288.325.637.579 1.046.763.41.184.876.276 1.399.276.645 0 1.26-.123 1.844-.368a3.937 3.937 0 0 0 1.516-1.184l1.909 2.196c-.287.421-.693.828-1.216 1.223-.514.386-1.133.701-1.856.947-.724.245-1.543.368-2.458.368Zm14.457-14.488 2.17 4.115 2.236-4.115h4.288l-3.857 6.942 4.04 7.284h-4.314l-2.38-4.392-2.366 4.392h-4.328l4.04-7.284-3.844-6.942h4.315Z"/></mask><g mask="url(#b)"><path fill="url(#c)" d="M5.84 21.835H3.512v2.341H5.84v-2.341Zm0-3.326v-2.342H3.512v2.341H5.84Zm6.485-.355-1.106-2.06-.009.004-.009.005 1.124 2.05Zm.955-.973-2.083-1.048-.004.01-.005.008 2.092 1.03Zm0-2.932-2.143.917.01.024.011.024 2.122-.965Zm-.955-1.144-1.3 1.942.008.006.01.006 1.282-1.954Zm-4.942-.434v-2.342H5.055v2.342h2.328Zm0 15.817v2.341h2.328v-2.341H7.383Zm-4.262 0H.792v2.341h2.329v-2.341Zm0-19.144V7.003H.792v2.341h2.329Zm11.4.829-1.054 2.087.003.002.004.002 1.048-2.091Zm2.498 2.274-1.997 1.205.007.01.006.011 1.984-1.226Zm0 6.509-1.958-1.268-.004.006-.004.007 1.966 1.255Zm-2.497 2.13.972 2.127.004-.002.004-.002-.98-2.123Zm-3.896-1.593H5.84v4.683h4.786v-4.683Zm-2.457 2.342v-3.326H3.512v3.326h4.657ZM5.84 20.85h4.786v-4.683H5.84v4.683Zm4.786 0c.934 0 1.932-.152 2.823-.646L11.2 16.103c.024-.013.002.004-.095.024-.098.02-.253.04-.48.04v4.683Zm2.805-.636a4.517 4.517 0 0 0 1.94-2.004l-4.183-2.059a.237.237 0 0 1 .045-.063c.018-.017.02-.013-.014.005l2.212 4.12Zm1.931-1.986c.39-.783.56-1.621.56-2.467h-4.657a.814.814 0 0 1-.068.372l4.165 2.095Zm.56-2.467a5.99 5.99 0 0 0-.521-2.478l-4.242 1.931c.063.142.106.314.106.547h4.657Zm-.5-2.43a4.871 4.871 0 0 0-1.814-2.18l-2.565 3.908c.062.042.077.066.094.107l4.285-1.835Zm-1.796-2.168c-.93-.63-1.998-.834-3-.834v4.683c.41 0 .474.086.399.035l2.6-3.884Zm-3-.834H7.383v4.683h3.243V10.33Zm-5.571 2.342v15.817H9.71V12.67H5.055Zm2.328 13.475H3.121v4.683h4.262v-4.683ZM5.45 28.488V9.344H.792v19.144H5.45ZM3.121 11.686h7.505V7.003H3.12v4.683Zm7.505 0c1.24 0 2.159.226 2.841.574l2.11-4.175c-1.48-.756-3.158-1.082-4.951-1.082v4.683Zm2.848.578c.733.372 1.22.838 1.548 1.388l3.993-2.41c-.822-1.378-2-2.428-3.446-3.16l-2.095 4.182Zm1.561 1.41c.336.55.531 1.212.531 2.06h4.657c0-1.623-.389-3.152-1.22-4.513l-3.968 2.453Zm.531 2.06c0 .851-.195 1.47-.505 1.954l3.915 2.536c.859-1.34 1.247-2.869 1.247-4.49h-4.657Zm-.513 1.967c-.309.489-.777.918-1.511 1.26l1.96 4.248c1.444-.674 2.64-1.665 3.483-2.999l-3.932-2.51Zm-1.504 1.257c-.704.326-1.653.535-2.923.535v4.683c1.763 0 3.41-.29 4.868-.963l-1.945-4.255Zm9.612-.594 2.204.754.001-.004.001-.003-2.206-.747Zm3.425-3.813.915 2.153.009-.004.01-.004-.934-2.145Zm5.779 0-.933 2.145.013.006.013.006.907-2.157Zm3.438 3.813-2.206.747v.003l.002.004 2.204-.754Zm0 6.035 2.205.753.001-.003.001-.003-2.207-.747Zm-1.307 2.3 1.738 1.56.005-.007.005-.006-1.748-1.546Zm-10.028 0-1.748 1.547.005.006.005.006 1.738-1.558Zm-1.307-2.3-2.207.747.001.003.001.003 2.205-.753Zm3.778-1.302-2.292.412.004.02.003.02 2.285-.452Zm1.281 2.156L27 27.247l.03.019.03.017 1.16-2.03Zm2.524 0 1.182 2.017.02-.011.018-.012-1.22-1.994Zm1.268-2.156-2.285-.451-.004.02-.003.02 2.292.411Zm0-3.405-2.292.411.004.024.005.024 2.283-.46Zm-1.281-2.183-1.22 1.994.01.007.012.007 1.198-2.008Zm-3.792 2.183-2.285-.451-.003.016-.003.016 2.291.419Zm-1.895 1.827v-.276h-4.656v.276h4.656Zm0-.276c0-.819.116-1.52.321-2.125l-4.409-1.508c-.388 1.148-.568 2.366-.568 3.633h4.656Zm.323-2.132a4.22 4.22 0 0 1 .839-1.49l-3.476-3.116a8.901 8.901 0 0 0-1.776 3.112l4.413 1.494Zm.839-1.49a3.574 3.574 0 0 1 1.294-.917l-1.828-4.306a8.226 8.226 0 0 0-2.942 2.107l3.476 3.117Zm1.313-.925c.494-.217 1.126-.356 1.943-.356v-4.683c-1.344 0-2.63.23-3.81.749l1.867 4.29Zm1.943-.356c.841 0 1.48.14 1.97.356l1.866-4.29c-1.184-.521-2.48-.749-3.836-.749v4.683Zm1.996.368c.548.233.969.54 1.3.914l3.476-3.117a8.2 8.2 0 0 0-2.963-2.11l-1.813 4.313Zm1.3.914c.351.395.635.88.839 1.489l4.413-1.494a8.903 8.903 0 0 0-1.776-3.113l-3.476 3.118Zm.841 1.496c.205.605.32 1.306.32 2.125h4.657c0-1.267-.18-2.485-.568-3.633l-4.409 1.508Zm.32 2.125v.276h4.657v-.276H33.92Zm0 .276c0 .808-.115 1.513-.322 2.133l4.413 1.494c.385-1.15.566-2.365.566-3.627H33.92Zm-.32 2.126a4.378 4.378 0 0 1-.851 1.508l3.496 3.093a9.063 9.063 0 0 0 1.764-3.093l-4.409-1.508Zm-.84 1.496a3.572 3.572 0 0 1-1.296.917l1.83 4.307a8.226 8.226 0 0 0 2.94-2.107l-3.475-3.117Zm-1.296.917c-.496.214-1.138.351-1.975.351v4.683c1.343 0 2.627-.222 3.804-.727l-1.829-4.307Zm-1.975.351c-.823 0-1.47-.136-1.982-.354l-1.813 4.313c1.178.501 2.458.724 3.795.724V26.41Zm-1.982-.354a3.549 3.549 0 0 1-1.3-.914l-3.476 3.117a8.2 8.2 0 0 0 2.963 2.11l1.813-4.313Zm-1.29-.902a4.378 4.378 0 0 1-.851-1.508l-4.409 1.508a9.062 9.062 0 0 0 1.764 3.093l3.496-3.093Zm-.849-1.501c-.207-.62-.323-1.325-.323-2.133h-4.656c0 1.262.18 2.476.566 3.627l4.413-1.494Zm-.887-2.409v.276h4.657v-.276H24.48Zm0 .276c0 .683.053 1.347.167 1.99l4.584-.823a6.687 6.687 0 0 1-.094-1.167H24.48Zm.174 2.03c.136.696.366 1.374.721 1.998l4.043-2.323a1.916 1.916 0 0 1-.194-.578l-4.57.902Zm.721 1.998a4.717 4.717 0 0 0 1.625 1.7l2.44-3.988.002.001.002.002-.007-.008a.335.335 0 0 1-.019-.03l-4.043 2.323Zm1.685 1.736c.776.449 1.62.614 2.428.614v-4.683a.705.705 0 0 1-.152-.012c-.01-.003.01.001.045.021l-2.321 4.06Zm2.428.614c.807 0 1.658-.164 2.438-.627l-2.365-4.034c.046-.027.076-.034.071-.033a.67.67 0 0 1-.144.011v4.683Zm2.476-.65a4.717 4.717 0 0 0 1.625-1.7l-4.043-2.323a.294.294 0 0 1-.026.038l.003-.002c0-.001.001-.001 0 0l2.44 3.987Zm1.625-1.7c.362-.637.589-1.33.715-2.038l-4.584-.823c-.049.272-.118.44-.174.538l4.043 2.323Zm.708-1.999c.128-.656.187-1.334.187-2.029h-4.657c0 .428-.036.801-.1 1.127l4.57.902Zm.187-2.029v-.276h-4.657v.276h4.657Zm0-.276c0-.688-.06-1.36-.189-2.01l-4.566.918c.062.314.098.676.098 1.092h4.657Zm-.18-1.963a6.51 6.51 0 0 0-.704-2.031l-4.066 2.282c.066.118.137.299.186.572l4.584-.823ZM33.6 17.25a4.655 4.655 0 0 0-1.672-1.747l-2.395 4.015-.007-.005a.087.087 0 0 1-.008-.007c-.002-.002-.002-.002 0 .001.003.004.009.012.016.025L33.6 17.25Zm-1.65-1.734c-.792-.49-1.665-.663-2.488-.663v4.683c.094 0 .136.01.137.01l-.025-.009a.447.447 0 0 1-.064-.033l2.44-3.988Zm-2.488-.663c-.822 0-1.681.18-2.462.663l2.44 3.988a.408.408 0 0 1-.084.04c-.004 0 .028-.008.106-.008v-4.683ZM27 15.515a4.69 4.69 0 0 0-1.637 1.734l4.067 2.282a.343.343 0 0 1 .02-.033l.006-.007-.007.006a.071.071 0 0 1-.008.006L27 15.515Zm-1.637 1.734a6.75 6.75 0 0 0-.709 1.992l4.57.902c.056-.287.133-.481.206-.612l-4.067-2.282Zm-.715 2.024a11.078 11.078 0 0 0-.168 1.97h4.657c0-.429.034-.805.093-1.132l-4.582-.838ZM45.71 8.279h2.329V5.938H45.71v2.341Zm0 20.209v2.341h2.329v-2.341H45.71Zm-4.092 0H39.29v2.341h2.328v-2.341Zm0-20.209V5.938H39.29v2.341h2.328Zm13.074 5.983 1.76 1.532 3.336-3.874h-5.096v2.342Zm-6.157 7.152 1.65 1.652.057-.057.053-.062-1.76-1.533Zm-3.256 3.287-2.003 1.194 1.532 2.6 2.12-2.142-1.649-1.652Zm-1.634-2.774-1.842-1.433-.968 1.258.807 1.368 2.003-1.193Zm2.64-3.432-1.792-1.494-.024.03-.024.031 1.84 1.433Zm3.492-4.233V11.92h-1.094l-.699.847 1.792 1.495Zm.601 14.226-1.985 1.224.682 1.117h1.303v-2.341Zm-3.988-6.535-1.433-1.845-1.639 1.287 1.088 1.783 1.984-1.225Zm2.929-2.3 1.95-1.281-1.387-2.134-1.996 1.57 1.433 1.844Zm5.74 8.835v2.341h4.302l-2.353-3.622-1.95 1.28ZM43.382 8.279v20.209h4.657V8.279h-4.657Zm2.328 17.867h-4.092v4.683h4.092v-4.683Zm-1.763 2.342V8.279H39.29v20.209h4.657ZM41.618 10.62h4.092V5.938h-4.092v4.683Zm11.314 2.108-6.157 7.153 3.52 3.065 6.158-7.153-3.52-3.065Zm-6.047 7.033-3.256 3.287 3.3 3.305 3.255-3.287-3.299-3.305Zm.397 3.746-1.634-2.774-4.006 2.386 1.634 2.775 4.006-2.387Zm-1.796-.148 2.641-3.432-3.682-2.866-2.642 3.432 3.683 2.866Zm2.592-3.37 3.49-4.234-3.584-2.989-3.49 4.234 3.584 2.989Zm1.698-3.387h4.916V11.92h-4.916v4.683Zm2.586 10.66-3.987-6.535-3.969 2.45 3.987 6.534 3.97-2.449Zm-4.538-3.465 2.928-2.3-2.867-3.69-2.928 2.3 2.867 3.69Zm-.454-2.865 5.74 8.835 3.898-2.56-5.74-8.836-3.898 2.561Zm7.689 5.213h-4.681v4.683h4.68v-4.683Zm5.37.58-1.68 1.62.01.012.012.012 1.658-1.644Zm-.144-10.637-1.758-1.535-.001.002 1.76 1.533Zm2.118-1.538.915 2.153.01-.004.008-.004-.933-2.145Zm5.544-.053-.906 2.158.01.004.01.004.886-2.166Zm1.987 1.407-1.743 1.553.005.006.006.006 1.732-1.565Zm1.229 2.196-2.213.727.004.013.005.014 2.204-.754Zm.431 4.55v2.34h2.329v-2.34h-2.329Zm-11.4 0h-2.329v2.34h2.329v-2.34Zm0-2.644v-2.341h-2.329v2.341h2.329Zm7.4 0v2.342h2.328v-2.342h-2.328Zm-.275-1.63-2.11.988.008.02.01.02 2.092-1.028Zm-.784-.868-1.22 1.994.029.019.03.017 1.16-2.03Zm-3.334.894-2.064-1.084-.004.009-.005.009 2.073 1.066Zm-.419 1.328 2.294.405v-.007l-2.294-.398Zm5.034 5.47.898 2.16.013-.006.014-.005-.925-2.15Zm1.517-1.184 1.753-1.54-1.829-2.104-1.74 2.178 1.816 1.466Zm1.909 2.196 1.918 1.327 1.025-1.499-1.19-1.369-1.753 1.541Zm-1.217 1.223 1.392 1.877.003-.002.002-.002-1.397-1.873Zm-7.204-15.068-1.963-1.257-2.279 3.599h4.242v-2.342Zm2.59-4.089V5.938h-1.279l-.686 1.084 1.964 1.257Zm4.366 0 1.739 1.558 3.453-3.899h-5.192v2.341Zm-3.621 4.09v2.34H67.2l.694-.783-1.738-1.558Zm-.445 14.04c-.877 0-1.582-.14-2.152-.37l-1.736 4.345c1.208.489 2.517.708 3.888.708V26.41Zm-2.152-.37c-.618-.25-1.096-.574-1.472-.957L58.77 28.37a8.892 8.892 0 0 0 3.052 2.014l1.736-4.345Zm-1.45-.934a4.304 4.304 0 0 1-.91-1.438l-4.338 1.7a8.995 8.995 0 0 0 1.887 2.98l3.362-3.242Zm-.91-1.438a4.974 4.974 0 0 1-.324-1.819h-4.657c0 1.22.21 2.4.642 3.519l4.34-1.7Zm-.324-1.819v-.5h-4.657v.5h4.657Zm0-.5c0-.84.117-1.564.325-2.191l-4.418-1.481c-.385 1.16-.564 2.391-.564 3.672h4.657Zm.325-2.191a4.46 4.46 0 0 1 .845-1.534l-3.52-3.067a9.134 9.134 0 0 0-1.743 3.12l4.418 1.48Zm.843-1.532c.336-.389.75-.695 1.275-.92l-1.83-4.307a8.086 8.086 0 0 0-2.96 2.156l3.515 3.07Zm1.294-.929c.495-.218 1.124-.356 1.93-.356v-4.683c-1.339 0-2.62.23-3.797.749l1.867 4.29Zm1.93-.356c.745 0 1.322.124 1.774.316l1.811-4.315c-1.117-.474-2.327-.684-3.585-.684v4.683Zm1.794.324c.47.194.835.459 1.13.794l3.486-3.105a7.64 7.64 0 0 0-2.845-2.02l-1.77 4.331Zm1.141.806c.3.337.558.774.748 1.358l4.426-1.454c-.368-1.134-.93-2.16-1.71-3.034l-3.464 3.13Zm.757 1.385c.192.568.307 1.263.307 2.112h4.657c0-1.272-.173-2.488-.556-3.62l-4.408 1.508Zm.307 2.112v1.683h4.657v-1.683h-4.657Zm2.328-.658h-11.4v4.682h11.4V20.31Zm-9.072 2.341v-2.643h-4.657v2.643h4.657Zm-2.328-.301h7.4v-4.683h-7.4v4.683Zm9.728-2.342v-.315h-4.656v.315h4.656Zm0-.315c0-.788-.145-1.59-.51-2.343l-4.185 2.055c0 .002.038.077.038.288h4.657Zm-.491-2.302a4.232 4.232 0 0 0-1.736-1.91l-2.32 4.06a.448.448 0 0 1-.167-.175l4.223-1.975Zm-1.676-1.875c-.804-.498-1.692-.663-2.515-.663v4.683c.109 0 .16.011.168.013.005.001-.034-.008-.094-.045l2.44-3.988Zm-2.515-.663c-.82 0-1.694.175-2.485.678l2.487 3.959a.548.548 0 0 1-.114.054c-.007.002.026-.008.112-.008v-4.683Zm-2.485.678a4.603 4.603 0 0 0-1.618 1.789l4.127 2.169a.43.43 0 0 1 .02-.033c.003-.005.003-.005 0 0a.236.236 0 0 1-.042.035l-2.487-3.96Zm-1.627 1.807a6.977 6.977 0 0 0-.64 1.996l4.589.796a2.33 2.33 0 0 1 .197-.66l-4.146-2.132Zm-.639 1.99c-.113.65-.166 1.326-.166 2.021h4.657c0-.46.035-.863.096-1.212l-4.587-.81Zm-.166 2.021v.5h4.657v-.5h-4.657Zm0 .5c0 .763.103 1.516.338 2.24l4.426-1.456a2.532 2.532 0 0 1-.107-.784h-4.657Zm.338 2.24c.237.73.606 1.412 1.129 2l3.475-3.116a.933.933 0 0 1-.178-.34l-4.426 1.456Zm1.129 2a5.379 5.379 0 0 0 1.834 1.343l1.9-4.276a.73.73 0 0 1-.259-.183l-3.475 3.117Zm1.834 1.343c.754.338 1.552.48 2.349.48v-4.684c-.25 0-.384-.043-.45-.072l-1.9 4.276Zm2.349.48c.947 0 1.867-.183 2.74-.55l-1.795-4.32a2.395 2.395 0 0 1-.945.186v4.683Zm2.768-.561a6.268 6.268 0 0 0 2.407-1.866l-3.63-2.933c-.208.26-.415.409-.627.5l1.85 4.299Zm-1.161-1.791 1.908 2.195 3.507-3.082-1.91-2.196-3.505 3.083Zm1.743-.672c-.11.16-.319.392-.695.676l2.794 3.746c.67-.505 1.273-1.089 1.738-1.77l-3.837-2.652Zm-.69.672c-.284.213-.674.424-1.208.605l1.488 4.437c.913-.31 1.76-.73 2.504-1.288l-2.784-3.754Zm-1.208.605c-.442.15-1.003.245-1.714.245v4.683c1.12 0 2.197-.15 3.202-.49l-1.488-4.438Zm-2.64-12.538 2.59-4.09-3.929-2.514-2.588 4.089 3.928 2.515Zm.625-3.005h4.367V5.938H65.41v4.683Zm2.629-3.899-3.622 4.09 3.477 3.114 3.622-4.09-3.477-3.114Zm-1.883 3.305H62.82v4.683h3.335v-4.683Zm18.876 15.279h-2.329v.154l.02.153 2.309-.307Zm0-17.013V5.95h-2.329v2.342h2.329Zm4.105 0h2.328V5.95h-2.328v2.342Zm0 20.195v2.341h2.328v-2.341h-2.328Zm-3.687 0-2.308.307.267 2.034h2.041v-2.341Zm-8.877-10.164-2.245-.62-.003.008-.002.008 2.25.604Zm1.059-2.3-1.881-1.38-.002.002-.002.002 1.885 1.375Zm6.25-1.473-1.199 2.008.01.006.011.006 1.177-2.02Zm1.555 1.525-1.95 1.28.01.016.01.015 1.93-1.31Zm1.059 2.301-2.226.687.001.003v.003l2.225-.693Zm.615 2.853h2.328v-.16l-.021-.157-2.307.317Zm0 .473 2.307.311.02-.154v-.157h-2.327Zm-.615 2.748-2.211-.733-.003.01-.004.01 2.218.713Zm-1.06 2.249-1.928-1.311-.002.003-.002.003 1.933 1.305Zm-1.568 1.512 1.177 2.02.004-.002.004-.003-1.185-2.015Zm-4.524 0-1.083 2.072.005.003.006.003 1.072-2.078Zm-2.771-3.8-2.248.61.002.01.004.011 2.242-.631Zm3.844-1.302-2.298.378.003.02.004.021 2.29-.419Zm1.176 2.143-1.291 1.949.019.012.019.013 1.253-1.974Zm2.654-.118 1.35 1.908.013-.01.014-.01-1.377-1.888Zm1.203-2.971 2.328.03v-.03H85.45Zm-.68-4.024-1.894 1.361.012.018.013.018 1.87-1.397Zm-.823-.697-1.042 2.095.022.01.023.012.997-2.116Zm-2.315.066 1.254 1.973.02-.012.018-.012-1.292-1.949Zm-.771.855-2.042-1.125-.01.02-.01.018 2.062 1.087Zm-.431 1.302-2.287-.444-.003.016-.003.016 2.293.412Zm6.93 5.64V8.293h-4.657v17.013h4.657Zm-2.328-14.672h4.105V5.951h-4.105v4.683Zm1.777-2.341v20.195h4.656V8.293H86.81Zm2.328 17.853H85.45v4.683h3.687v-4.683Zm-1.379 2.035-.418-3.182-4.617.614.419 3.182 4.616-.614Zm-9.21-6.635v-.276h-4.657v.276h4.657Zm0-.276c0-.91.1-1.684.274-2.34l-4.499-1.21c-.296 1.113-.432 2.302-.432 3.55h4.657Zm.27-2.326c.183-.668.426-1.169.698-1.545l-3.769-2.751c-.652.904-1.114 1.937-1.42 3.057l4.491 1.24Zm.694-1.54c.262-.36.561-.613.91-.79l-2.103-4.178a7.177 7.177 0 0 0-2.568 2.207l3.761 2.76Zm.91-.79c.317-.161.736-.274 1.315-.274v-4.683c-1.199 0-2.357.239-3.418.779l2.103 4.178Zm1.315-.274c.462 0 .75.1.946.219l2.396-4.016c-1.024-.618-2.166-.886-3.342-.886v4.683Zm.968.231c.267.158.532.4.783.786l3.898-2.561c-.603-.93-1.376-1.704-2.328-2.265l-2.354 4.04Zm.803.816c.285.425.548.974.762 1.677l4.452-1.374c-.326-1.068-.77-2.053-1.356-2.925l-3.858 2.622Zm.764 1.683c.228.74.407 1.563.531 2.477l4.615-.634a20.196 20.196 0 0 0-.698-3.23l-4.448 1.387Zm.51 2.16v.473h4.657v-.473h-4.657Zm.02.163a12.933 12.933 0 0 1-.517 2.325l4.422 1.467c.329-1.002.564-2.06.711-3.17l-4.615-.622Zm-.524 2.345a6.43 6.43 0 0 1-.77 1.65l3.858 2.622a11.116 11.116 0 0 0 1.348-2.846l-4.436-1.426Zm-.774 1.657a2.55 2.55 0 0 1-.821.801l2.37 4.03a7.205 7.205 0 0 0 2.317-2.221l-3.866-2.61Zm-.813.796c-.196.116-.494.218-.98.218v4.683c1.17 0 2.31-.257 3.334-.86l-2.354-4.04Zm-.98.218c-.57 0-.983-.113-1.294-.276l-2.145 4.157c1.065.556 2.231.802 3.439.802V26.41Zm-1.283-.27a2.55 2.55 0 0 1-.903-.803l-3.786 2.727a7.215 7.215 0 0 0 2.522 2.221l2.167-4.145Zm-.903-.803c-.284-.398-.53-.905-.71-1.555l-4.484 1.262c.306 1.103.767 2.12 1.408 3.02l3.786-2.727Zm-.705-1.534a8.69 8.69 0 0 1-.272-2.256h-4.657c0 1.212.138 2.375.434 3.476l4.495-1.22Zm-.85-2.532v.276h4.657v-.276h-4.656Zm0 .276c0 .67.047 1.319.149 1.942l4.595-.756a7.4 7.4 0 0 1-.087-1.186h-4.656Zm.156 1.983c.122.674.328 1.332.646 1.943l4.125-2.173a2.14 2.14 0 0 1-.19-.608l-4.581.838Zm.646 1.943c.355.682.86 1.281 1.53 1.73l2.583-3.897a.162.162 0 0 1 .032.028.285.285 0 0 1-.02-.034l-4.125 2.173Zm1.568 1.755c.762.49 1.603.67 2.404.67v-4.683c-.056 0-.065-.006-.04 0 .03.008.082.027.143.066l-2.507 3.947Zm2.404.67c.963 0 1.972-.224 2.853-.854l-2.7-3.816c.042-.03.068-.035.056-.032a.824.824 0 0 1-.21.02v4.682Zm2.88-.874c.786-.58 1.334-1.353 1.677-2.221l-4.33-1.727a.615.615 0 0 1-.072.142.13.13 0 0 1-.029.03l2.754 3.776Zm1.677-2.221c.326-.828.466-1.712.477-2.608l-4.656-.06c-.006.453-.076.752-.15.941l4.329 1.727Zm.477-2.638v-1.38h-4.656v1.38h4.656Zm0-1.38c0-.717-.071-1.42-.242-2.091l-4.512 1.156c.056.223.098.528.098.934h4.656Zm-.242-2.091a5.552 5.552 0 0 0-.897-1.949l-3.738 2.793a.944.944 0 0 1 .123.312l4.512-1.156Zm-.87-1.914a4.444 4.444 0 0 0-1.723-1.451L82.95 19.56a.234.234 0 0 1-.048-.032c-.019-.016-.027-.028-.026-.027l3.79-2.722Zm-1.678-1.43c-.72-.361-1.483-.497-2.218-.497v4.683c.171 0 .192.031.135.003l2.083-4.189Zm-2.218-.497c-.82 0-1.668.2-2.43.71l2.584 3.896a.544.544 0 0 1-.153.072c-.036.01-.04.005-.001.005v-4.683Zm-2.391.684a4.622 4.622 0 0 0-1.56 1.703l4.084 2.25a.394.394 0 0 1 .022-.037l.003-.004a.27.27 0 0 1-.042.035l-2.507-3.947Zm-1.58 1.741a7.09 7.09 0 0 0-.656 1.945l4.573.887c.062-.324.141-.532.207-.659l-4.125-2.173Zm-.662 1.977c-.114.646-.166 1.32-.166 2.015h4.656c0-.461.035-.856.095-1.192l-4.585-.823Zm18.318 7.472-1.68 1.62.011.012.012.012 1.657-1.644Zm-.143-10.637-1.758-1.535-.002.002 1.76 1.533Zm2.118-1.538.914 2.153.01-.004.009-.004-.933-2.145Zm5.543-.053-.905 2.158.01.004.01.004.885-2.166Zm1.988 1.407-1.744 1.553.006.006.006.006 1.732-1.565Zm1.229 2.196-2.214.727.005.013.004.014 2.205-.754Zm.431 4.55v2.34h2.328v-2.34h-2.328Zm-11.4 0h-2.33v2.34h2.33v-2.34Zm0-2.644v-2.341h-2.33v2.341h2.33Zm7.399 0v2.342h2.329v-2.342h-2.329Zm-.274-1.63-2.112.988.01.02.009.02 2.093-1.028Zm-.785-.868-1.22 1.994.03.019.029.017 1.161-2.03Zm-3.334.894-2.063-1.084-.005.009-.005.009 2.073 1.066Zm-.418 1.328 2.293.405.001-.004v-.003l-2.294-.398Zm5.034 5.47.897 2.16.014-.006.013-.005-.924-2.15Zm1.516-1.184 1.753-1.54-1.829-2.104-1.739 2.178 1.815 1.466Zm1.909 2.196 1.918 1.327 1.025-1.499-1.19-1.369-1.753 1.541Zm-1.216 1.223 1.392 1.877.002-.002.003-.002-1.397-1.873Zm-4.314-1.027c-.878 0-1.583-.14-2.152-.37l-1.737 4.345c1.209.489 2.517.708 3.889.708V26.41Zm-2.152-.37c-.62-.25-1.097-.574-1.473-.957l-3.315 3.288a8.895 8.895 0 0 0 3.05 2.014l1.738-4.345Zm-1.45-.934a4.304 4.304 0 0 1-.91-1.438l-4.34 1.7a8.995 8.995 0 0 0 1.889 2.98l3.361-3.242Zm-.91-1.438a4.974 4.974 0 0 1-.325-1.819h-4.656c0 1.22.208 2.4.642 3.519l4.34-1.7Zm-.325-1.819v-.5h-4.656v.5H96.9Zm0-.5c0-.84.117-1.564.325-2.191l-4.418-1.481c-.384 1.16-.563 2.391-.563 3.672H96.9Zm.325-2.191a4.455 4.455 0 0 1 .845-1.534l-3.519-3.067a9.14 9.14 0 0 0-1.744 3.12l4.418 1.48Zm.844-1.532c.335-.389.75-.695 1.274-.92l-1.829-4.307a8.089 8.089 0 0 0-2.962 2.156l3.517 3.07Zm1.293-.929c.496-.218 1.124-.356 1.93-.356v-4.683c-1.338 0-2.619.23-3.796.749l1.866 4.29Zm1.93-.356c.745 0 1.323.124 1.775.316l1.811-4.315c-1.117-.474-2.327-.684-3.586-.684v4.683Zm1.795.324c.469.194.834.459 1.129.794l3.486-3.105a7.629 7.629 0 0 0-2.845-2.02l-1.77 4.331Zm1.141.806c.3.337.558.774.747 1.358l4.427-1.454c-.369-1.134-.931-2.16-1.711-3.034l-3.463 3.13Zm.756 1.385c.192.568.308 1.263.308 2.112h4.656c0-1.272-.172-2.488-.555-3.62l-4.409 1.508Zm.308 2.112v1.683h4.656v-1.683h-4.656Zm2.328-.658h-11.4v4.682h11.4V20.31Zm-9.072 2.341v-2.643h-4.657v2.643h4.657Zm-2.329-.301h7.4v-4.683h-7.4v4.683Zm9.729-2.342v-.315h-4.657v.315h4.657Zm0-.315c0-.788-.146-1.59-.511-2.343l-4.185 2.055c.001.002.039.077.039.288h4.657Zm-.492-2.302a4.23 4.23 0 0 0-1.735-1.91l-2.322 4.06a.486.486 0 0 1-.166-.175l4.223-1.975Zm-1.675-1.875c-.805-.498-1.692-.663-2.515-.663v4.683c.108 0 .159.011.167.013.005.001-.033-.008-.093-.045l2.441-3.988Zm-2.515-.663c-.82 0-1.694.175-2.486.678l2.487 3.959a.537.537 0 0 1-.114.054c-.007.002.026-.008.113-.008v-4.683Zm-2.486.678a4.607 4.607 0 0 0-1.617 1.789l4.127 2.169c.009-.018.016-.028.019-.033.003-.005.004-.005 0 0a.188.188 0 0 1-.042.035l-2.487-3.96Zm-1.627 1.807a6.999 6.999 0 0 0-.64 1.996l4.589.796c.056-.324.133-.533.197-.66l-4.146-2.132Zm-.638 1.99c-.114.65-.166 1.326-.166 2.021h4.657c0-.46.034-.863.095-1.212l-4.586-.81Zm-.166 2.021v.5h4.657v-.5H96.35Zm0 .5c0 .763.102 1.516.337 2.24l4.426-1.456a2.547 2.547 0 0 1-.106-.784H96.35Zm.337 2.24c.238.73.607 1.412 1.13 2l3.475-3.116a.922.922 0 0 1-.179-.34l-4.426 1.456Zm1.13 2a5.376 5.376 0 0 0 1.833 1.343l1.9-4.276a.722.722 0 0 1-.258-.183l-3.476 3.117Zm1.833 1.343c.754.338 1.553.48 2.349.48v-4.684c-.249 0-.384-.043-.449-.072l-1.9 4.276Zm2.349.48c.947 0 1.867-.183 2.741-.55l-1.795-4.32a2.398 2.398 0 0 1-.946.186v4.683Zm2.768-.561a6.267 6.267 0 0 0 2.407-1.866l-3.63-2.933a1.62 1.62 0 0 1-.627.5l1.85 4.299Zm-1.161-1.791 1.909 2.195 3.506-3.082-1.909-2.196-3.506 3.083Zm1.743-.672c-.11.16-.318.392-.694.676l2.794 3.746c.67-.505 1.272-1.089 1.737-1.77l-3.837-2.652Zm-.689.672c-.284.213-.675.424-1.209.605l1.489 4.437c.913-.31 1.76-.73 2.504-1.288l-2.784-3.754Zm-1.209.605c-.441.15-1.003.245-1.713.245v4.683c1.119 0 2.196-.15 3.202-.49l-1.489-4.438Zm12.743-11.902 2.058-1.097-.657-1.245h-1.401v2.342Zm2.171 4.115-2.057 1.097 2.026 3.843 2.074-3.817-2.043-1.123Zm2.235-4.115V11.92h-1.381l-.662 1.22 2.043 1.122Zm4.289 0 2.033 1.142 1.935-3.484h-3.968v2.342Zm-3.857 6.942-2.033-1.142-.634 1.14.634 1.142 2.033-1.14Zm4.04 7.284v2.341h3.965l-1.931-3.482-2.034 1.14Zm-4.315 0-2.044 1.12.662 1.221h1.382v-2.341Zm-2.379-4.392 2.044-1.12-2.05-3.784-2.041 3.789 2.047 1.115Zm-2.367 4.392v2.341h1.387l.661-1.226-2.048-1.115Zm-4.327 0-2.033-1.14-1.932 3.481h3.965v-2.341Zm4.04-7.284 2.033 1.14.632-1.14-.631-1.14-2.034 1.14Zm-3.844-6.942V11.92h-3.961l1.927 3.48 2.034-1.138Zm2.257 1.097 2.171 4.115 4.114-2.194-2.17-4.115-4.115 2.194Zm6.271 4.14 2.236-4.115-4.087-2.245-2.236 4.115 4.087 2.246Zm.192-2.896h4.289V11.92H120.6v4.683Zm2.256-3.483-3.857 6.942 4.066 2.284 3.857-6.942-4.066-2.284Zm-3.857 9.224 4.04 7.284 4.067-2.28-4.041-7.285-4.066 2.281Zm6.073 3.802h-4.315v4.683h4.315v-4.683Zm-2.27 1.221-2.38-4.391-4.089 2.24 2.38 4.392 4.089-2.24Zm-6.471-4.386-2.367 4.391 4.095 2.231 2.366-4.391-4.094-2.231Zm-.32 3.165h-4.327v4.683h4.327v-4.683Zm-2.294 3.482 4.04-7.284-4.067-2.28-4.039 7.283 4.066 2.281Zm4.041-9.563-3.844-6.942-4.068 2.278 3.844 6.942 4.068-2.278Zm-5.878-3.462h4.314V11.92h-4.314v4.683Z"/></g><path fill="#fff" d="M158.953 15.201V25.94c-.437.5-1.103 1.037-2.001 1.61-.885.573-2.019 1.067-3.401 1.482-1.383.402-3.032.603-4.948.603-1.734 0-3.311-.28-4.73-.841a10.066 10.066 0 0 1-3.656-2.506c-1.019-1.11-1.807-2.464-2.365-4.061-.545-1.598-.818-3.427-.818-5.488v-1.573c0-2.061.273-3.89.818-5.488.546-1.598 1.316-2.945 2.311-4.043a9.762 9.762 0 0 1 3.546-2.524c1.371-.573 2.887-.86 4.548-.86 2.365 0 4.299.384 5.803 1.152 1.504.757 2.643 1.805 3.419 3.147.789 1.341 1.274 2.884 1.456 4.628h-5.712c-.121-.89-.364-1.659-.727-2.305a3.551 3.551 0 0 0-1.51-1.482c-.655-.353-1.504-.53-2.547-.53-.837 0-1.595.177-2.274.53-.667.342-1.231.86-1.691 1.555-.461.695-.813 1.561-1.056 2.598-.242 1.024-.363 2.22-.363 3.585v1.61c0 1.366.121 2.567.363 3.604.255 1.036.625 1.902 1.11 2.597a4.725 4.725 0 0 0 1.837 1.555c.752.354 1.625.53 2.62.53.776 0 1.431-.06 1.964-.183.534-.134.97-.298 1.31-.493.339-.208.594-.397.764-.567v-4.427h-4.711V15.2h10.641Z"/><mask id="d" width="27" height="32" x="135" y="0" maskUnits="userSpaceOnUse" style="mask-type:luminance"><path fill="#fff" d="M161.433 0h-26.388v31.61h26.388V0Z"/><path fill="#000" d="M158.953 15.201V25.94c-.437.5-1.103 1.037-2.001 1.61-.885.573-2.019 1.067-3.401 1.482-1.383.402-3.032.603-4.948.603-1.734 0-3.311-.28-4.73-.841a10.066 10.066 0 0 1-3.656-2.506c-1.019-1.11-1.807-2.464-2.365-4.061-.545-1.598-.818-3.427-.818-5.488v-1.573c0-2.061.273-3.89.818-5.488.546-1.598 1.316-2.945 2.311-4.043a9.762 9.762 0 0 1 3.546-2.524c1.371-.573 2.887-.86 4.548-.86 2.365 0 4.299.384 5.803 1.152 1.504.757 2.643 1.805 3.419 3.147.789 1.341 1.274 2.884 1.456 4.628h-5.712c-.121-.89-.364-1.659-.727-2.305a3.551 3.551 0 0 0-1.51-1.482c-.655-.353-1.504-.53-2.547-.53-.837 0-1.595.177-2.274.53-.667.342-1.231.86-1.691 1.555-.461.695-.813 1.561-1.056 2.598-.242 1.024-.363 2.22-.363 3.585v1.61c0 1.366.121 2.567.363 3.604.255 1.036.625 1.902 1.11 2.597a4.725 4.725 0 0 0 1.837 1.555c.752.354 1.625.53 2.62.53.776 0 1.431-.06 1.964-.183.534-.134.97-.298 1.31-.493.339-.208.594-.397.764-.567v-4.427h-4.711V15.2h10.641Z"/></mask><g mask="url(#d)"><path fill="url(#e)" d="M158.953 15.201h1.94V13.25h-1.94v1.951Zm0 10.738 1.458 1.288.482-.553v-.735h-1.94Zm-2.001 1.61-1.04-1.647-.006.003-.005.003 1.051 1.64Zm-3.401 1.482.539 1.874.007-.002.008-.003-.554-1.87Zm-9.678-.238-.723 1.81.006.003.007.003.71-1.816Zm-3.656-2.506-1.426 1.323.004.004.003.004 1.419-1.331Zm-2.365-4.061-1.835.634.002.006.002.006 1.831-.646Zm2.31-16.592 1.434 1.314.004-.004.004-.004-1.442-1.306Zm13.898-2.232-.879 1.74.006.003.005.003.868-1.746Zm3.419 3.147-1.677.981.004.006.003.005 1.67-.992Zm1.455 4.628v1.951h2.155l-.225-2.155-1.93.204Zm-5.711 0-1.922.265.229 1.686h1.693v-1.951Zm-.728-2.305-1.702.937.007.012.007.012 1.688-.961Zm-1.51-1.482-.918 1.72.013.006.013.007.892-1.733Zm-4.82 0 .88 1.74.006-.004.007-.003-.893-1.733Zm-2.747 4.153 1.888.452.001-.005-1.889-.447Zm0 8.799-1.888.446.002.011.003.01 1.883-.468Zm1.11 2.597-1.588 1.12.004.008.005.006 1.579-1.134Zm1.837 1.555-.833 1.762.006.003.005.002.822-1.767Zm4.584.348.43 1.902.021-.004.02-.005-.471-1.893Zm1.31-.494.962 1.694.023-.013.022-.014-1.007-1.667Zm.764-.567 1.372 1.38.568-.572v-.808h-1.94Zm0-4.427h1.94v-1.951h-1.94v1.95Zm-4.711 0h-1.941v1.95h1.941v-1.95Zm0-4.153V13.25h-1.941v1.951h1.941Zm8.7 0V25.94h3.881V15.201h-3.881Zm.483 9.45c-.264.303-.759.724-1.583 1.25l2.08 3.295c.971-.62 1.81-1.272 2.419-1.97l-2.916-2.574Zm-1.594 1.257c-.686.445-1.638.873-2.905 1.253l1.109 3.74c1.498-.45 2.814-1.01 3.897-1.712l-2.101-3.28Zm-2.89 1.248c-1.16.338-2.618.527-4.408.527v3.902c2.042 0 3.882-.213 5.487-.68l-1.079-3.749Zm-4.408.527c-1.525 0-2.856-.246-4.02-.706l-1.42 3.632c1.674.661 3.496.976 5.44.976v-3.902Zm-4.007-.7a8.132 8.132 0 0 1-2.961-2.028l-2.837 2.663a12.013 12.013 0 0 0 4.352 2.985l1.446-3.62Zm-2.953-2.02c-.819-.892-1.479-2.007-1.96-3.384l-3.662 1.293c.635 1.818 1.552 3.41 2.77 4.738l2.852-2.647Zm-1.956-3.371c-.462-1.355-.713-2.963-.713-4.854h-3.881c0 2.23.295 4.28.924 6.122l3.67-1.268Zm-.713-4.854v-1.573h-3.881v1.573h3.881Zm0-1.573c0-1.891.251-3.5.713-4.854l-3.67-1.268c-.629 1.84-.924 3.89-.924 6.122h3.881Zm.713-4.854c.472-1.38 1.117-2.487 1.909-3.363l-2.868-2.628c-1.196 1.32-2.091 2.908-2.711 4.723l3.67 1.268Zm1.917-3.37a7.819 7.819 0 0 1 2.85-2.03l-1.49-3.603a11.71 11.71 0 0 0-4.243 3.02l2.883 2.612Zm2.85-2.03c1.108-.463 2.367-.71 3.803-.71V.3c-1.887 0-3.66.326-5.293 1.01l1.49 3.602Zm3.803-.71c2.175 0 3.779.356 4.924.941l1.758-3.48C153.076.712 150.812.3 148.257.3V4.2Zm4.935.947c1.197.602 2.041 1.398 2.61 2.382l3.354-1.962c-.982-1.7-2.418-3-4.229-3.91l-1.735 3.49Zm2.617 2.393c.63 1.072 1.04 2.34 1.196 3.84l3.859-.408c-.207-1.987-.767-3.806-1.714-5.417l-3.341 1.985Zm3.125 1.685h-5.711v3.902h5.711V9.226Zm-3.789 1.686c-.147-1.085-.454-2.1-.961-3.001l-3.377 1.922c.22.391.399.913.494 1.609l3.844-.53Zm-.948-2.977a5.496 5.496 0 0 0-2.318-2.277l-1.786 3.465c.314.164.535.382.7.686l3.404-1.874Zm-2.293-2.264c-1.028-.555-2.224-.762-3.465-.762V8.81c.844 0 1.347.146 1.628.298l1.837-3.438Zm-3.465-.762c-1.118 0-2.186.238-3.166.749l1.785 3.465c.377-.197.825-.312 1.381-.312V4.909Zm-3.154.742c-.995.51-1.802 1.27-2.426 2.212l3.229 2.164c.297-.447.619-.724.957-.898l-1.76-3.478Zm-2.426 2.212c-.619.934-1.048 2.03-1.329 3.233l3.777.894c.203-.87.478-1.506.781-1.963l-3.229-2.164Zm-1.328 3.228c-.286 1.208-.417 2.561-.417 4.037h3.881c0-1.256.112-2.293.311-3.133l-3.775-.904Zm-.417 4.037v1.61h3.881v-1.61h-3.881Zm0 1.61c0 1.476.131 2.833.416 4.05l3.777-.893c-.2-.856-.312-1.902-.312-3.157h-3.881Zm.421 4.072c.298 1.212.751 2.314 1.405 3.25l3.176-2.242c-.317-.454-.603-1.084-.814-1.945l-3.767.936Zm1.414 3.263a6.667 6.667 0 0 0 2.583 2.183l1.666-3.524a2.78 2.78 0 0 1-1.091-.927l-3.158 2.268Zm2.594 2.188c1.055.497 2.218.715 3.442.715v-3.903c-.766 0-1.349-.136-1.798-.346l-1.644 3.534Zm3.442.715c.865 0 1.675-.067 2.394-.232l-.86-3.805c-.347.08-.848.134-1.534.134v3.903Zm2.435-.241c.642-.162 1.259-.382 1.801-.693l-1.925-3.389c-.137.08-.392.189-.817.296l.941 3.785Zm1.846-.72c.398-.242.801-.525 1.129-.855l-2.744-2.76c.001 0-.026.027-.099.08a3.92 3.92 0 0 1-.3.2l2.014 3.335Zm1.697-2.235v-4.426h-3.881v4.427h3.881Zm-1.94-6.378h-4.711v3.903h4.711v-3.902Zm-2.771 1.952V15.2h-3.881v4.153h3.881Zm-1.94-2.201h10.641V13.25h-10.641v3.902Z"/></g><path fill="#E9F9F1" d="m205.411 2.634-.691 18.348h-4.675l-.691-18.348h6.057Zm-6.221 24.037c0-.817.291-1.506.873-2.067.582-.561 1.352-.842 2.31-.842.946 0 1.704.28 2.274.842.582.56.873 1.25.873 2.067 0 .829-.291 1.524-.873 2.085-.57.549-1.328.823-2.274.823-.958 0-1.728-.274-2.31-.823-.582-.56-.873-1.256-.873-2.085Z"/><mask id="f" width="11" height="32" x="197" y="0" maskUnits="userSpaceOnUse" style="mask-type:luminance"><path fill="#fff" d="M207.612.39h-10.478v31.22h10.478V.39Z"/><path fill="#000" d="m205.411 2.634-.691 18.348h-4.675l-.691-18.348h6.057Zm-6.221 24.037c0-.817.291-1.506.873-2.067.582-.561 1.352-.842 2.31-.842.946 0 1.704.28 2.274.842.582.56.873 1.25.873 2.067 0 .829-.291 1.524-.873 2.085-.57.549-1.328.823-2.274.823-.958 0-1.728-.274-2.31-.823-.582-.56-.873-1.256-.873-2.085Z"/></mask><g mask="url(#f)"><path fill="url(#g)" d="m205.411 2.634 1.939.074.076-2.025h-2.015v1.951Zm-.691 18.348v1.951h1.868l.07-1.877-1.938-.074Zm-4.675 0-1.939.074.071 1.877h1.868v-1.951Zm-.691-18.348V.683h-2.016l.076 2.025 1.94-.074Zm5.293 21.97-1.357 1.394.007.007.007.008 1.343-1.41Zm0 4.152 1.342 1.41v-.001l-1.342-1.409Zm-4.584 0-1.343 1.409.008.007.008.008 1.327-1.424Zm3.409-26.196-.691 18.348 3.877.148.692-18.348-3.878-.148Zm1.248 16.47h-4.675v3.903h4.675v-3.902Zm-2.737 1.878-.691-18.348-3.878.148.692 18.348 3.877-.148Zm-2.629-16.323h6.057V.683h-6.057v3.902Zm1.776 22.086c0-.29.078-.469.275-.659l-2.685-2.817c-.967.932-1.47 2.131-1.47 3.476h3.88Zm.275-.659c.155-.148.41-.299.968-.299v-3.902c-1.358 0-2.643.41-3.653 1.384l2.685 2.817Zm.968-.299c.539 0 .776.146.917.285l2.714-2.789c-.999-.983-2.279-1.398-3.631-1.398v3.902Zm.931.3c.197.19.276.368.276.658h3.88c0-1.345-.503-2.544-1.471-3.476l-2.685 2.817Zm.276.658c0 .31-.085.493-.276.676l2.685 2.818c.974-.938 1.471-2.147 1.471-3.494h-3.88Zm-.275.676c-.139.134-.381.281-.932.281v3.903c1.34 0 2.615-.402 3.616-1.365l-2.684-2.82Zm-.932.281c-.57 0-.83-.151-.983-.295l-2.654 2.847c1.011.953 2.291 1.35 3.637 1.35v-3.902Zm-.968-.28c-.19-.184-.275-.366-.275-.677h-3.88c0 1.347.497 2.556 1.47 3.494l2.685-2.818Z"/></g><defs><linearGradient id="a" x1="178.899" x2="178.899" y1=".39" y2="31.61" gradientUnits="userSpaceOnUse"><stop stop-color="#52B788"/><stop offset="1" stop-color="#276578"/></linearGradient><linearGradient id="c" x1="89.758" x2="89.758" y1="5.463" y2="30.439" gradientUnits="userSpaceOnUse"><stop stop-color="#52B888"/><stop offset="1" stop-color="#276478"/></linearGradient><linearGradient id="e" x1="153.682" x2="153.682" y1="-2.741" y2="32.101" gradientUnits="userSpaceOnUse"><stop stop-color="#52B888"/><stop offset="1" stop-color="#276478"/></linearGradient><linearGradient id="g" x1="204.6" x2="204.6" y1="-2.741" y2="32.101" gradientUnits="userSpaceOnUse"><stop stop-color="#52B888"/><stop offset="1" stop-color="#276478"/></linearGradient></defs></svg>